# xmcd
#
# Track frame offsets: 
#        150
#        5045
#        22213
#        44965
#        58768
#        76260
#        91886
#        103205
#        115855
#        135190
#        153430
#        163870
#        187333
#        219193
#
# Disc length: 3995 seconds
#
# Revision: 6
# Processed by: cddbd v1.5.2PL0 Copyright (c) Steve Scherf et al.
# Submitted via: ExactAudioCopy v0.99pb5
#
DISCID=c40f990e
DTITLE=Chris Whitley - Terra Incognita
DYEAR=1997
DGENRE=Rock
TTITLE0=As Flat as the Earth (exp)
TTITLE1=Automatic
TTITLE2=Clear Blue Sky
TTITLE3=Weightless
TTITLE4=Power Down
TTITLE5=On Cue
TTITLE6=Immortal Blues
TTITLE7=Cool Wooden Crosses
TTITLE8=Still Point
TTITLE9=Gasket
TTITLE10=One Long Day
TTITLE11=Aerial
TTITLE12=Alien
TTITLE13=DATA
EXTD=
EXTT0=
EXTT1=
EXTT2=
EXTT3=
EXTT4=
EXTT5=
EXTT6=
EXTT7=
EXTT8=
EXTT9=
EXTT10=
EXTT11=
EXTT12=
EXTT13=
PLAYORDER=
